<svg version="1" xmlns="http://www.w3.org/2000/svg" width="1869.333" height="1869.333" viewBox="0 0 1402.000000 1402.000000"><path d="M505.5 105.7c-19.5.9-45.8 6.3-68.5 14.1-77.4 26.7-142 87.6-173.5 163.7-10 24.1-17.5 53.4-20.1 78.5-1 9.7-.9 9.6-11.6 10.5-17 1.3-40.9 6.9-55.3 13-48.7 20.6-84 56.9-101.8 104.5-6.3 16.9-9.6 33.4-11.2 55.7-.6 8.6-.6 9.1 1.4 9.8 1.8.5 30.3 0 53.1-1 4.1-.2 12.1-.4 17.8-.4l10.2-.1v-7.9c0-10.3 3.6-24.5 9.3-36.4 18.7-39.2 64-61.9 108.2-54.2 8.1 1.4 39.9 9.3 59.3 14.6 4 1.1 7.6 1.9 8.1 1.7.4-.2-.3-9.3-1.5-20.3-1.3-11-2.5-22.9-2.9-26.5-.3-3.6-1-10.1-1.4-14.5-6.2-60.3 15.7-119.6 60.3-164 23.7-23.5 49.2-39.4 79.4-49.5 22.3-7.5 39.7-10.1 63.2-9.5 34.9.8 66 9.4 101.7 28 33.4 17.4 60.5 40.2 83.1 70.1 11.1 14.7 19.4 30.2 36.7 68.6 5.4 12 10.3 21.8 10.8 21.8.9 0 6.6-4.5 35.2-27.7 30.4-24.6 54.6-38.5 83.1-47.6 24.6-7.8 36.9-9.6 62.9-9.2 15.8.2 22 .7 29.7 2.4 33 7.2 58.2 23.1 77 48.6 10.1 13.6 20.1 36.7 22.2 51.1.3 2.2 1 6.8 1.5 10.4.5 3.6 1 16.6 1 29 .1 12.4.4 23.4.6 24.5.2 1.1.4 2.6.4 3.3.1.9 1.1 1.1 3.9.6 5.8-1 7-1.3 19.2-3.5 22.4-4.1 35.6-5.7 47-5.7 47.3-.1 89.3 28.5 105 71.6 3 8.2 6 22.9 6 29.5v3.7l4.8-.5c2.6-.2 18-.7 34.2-1.1 16.2-.3 31.5-.7 34-.9 2.5-.2 5.3-.4 6.2-.4 2.7-.1 3.1-5.6 1.3-18.6-7-50.5-32.7-94.8-73-125.6-29.1-22.3-66.1-36.4-103.5-39.5-4.3-.4-8.2-.9-8.7-1.3-.5-.3-3.1-7.2-5.7-15.4-17.6-54.3-55.1-97.9-105.1-122.2-24.6-12-46.3-18.1-79-22-5.7-.7-36.8-.7-43.5 0-27.3 2.9-58.5 10.3-79.8 19.2-4.8 1.9-17.2 7.5-27.5 12.4-10.4 4.9-19.4 8.9-20.1 8.9-.7 0-5.1-5.1-9.7-11.3-22.5-30.3-51.9-58.2-82.5-78.5-41.6-27.5-90.9-46.3-138.4-52.7-1.4-.2-5-.7-8-1.1-5.3-.7-35.4-1.1-45.5-.7z"/><path d="M575.2 415.1c-11.1 1.8-23.5 9-31.9 18.4-12.5 14-22.8 39.3-29.7 72.7-2.8 13.7-7.1 41.5-8.1 52.3-.4 3.8-.8 8-1 9.3-.2 1.2-.7 6.2-1 11-.4 4.8-.8 9.8-1 11.2-.2 1.4-.6 7.4-1 13.5-.3 6-.8 13.7-1 17-.2 3.3-.7 13.2-1 22-.3 8.8-.8 20-1 25-.2 4.9-.7 15.5-1 23.5-.3 8-.8 17-1 20-.2 3-.7 10.4-1 16.5-.4 6-.8 12.3-1 14-.2 1.6-.6 7.5-1 13-.3 5.5-.8 10.7-1 11.5-.2.8-.7 4.4-1 8-.3 3.6-.8 7.6-1 9-.3 1.4-.7 4.5-1 7-.3 2.5-1 7-1.5 10s-1.2 7.1-1.5 9c-1.4 8.7-6.7 30.5-9.9 41-8.3 27.4-20.8 49.8-34.4 62-17.4 15.5-42.9 19.2-64 9.3C350 908.2 333 871.5 326.1 809c-1.6-14.4-2.9-27.3-3.6-37-.2-3.6-.7-8.8-1-11.5-.2-2.8-.7-7.9-1-11.5-2-23.8-4.5-45.5-6.5-56.5-.5-2.8-1.2-6.8-1.5-8.9-2.7-18.9-13.2-56.3-22.1-79-13.3-33.6-26.2-54-41.2-65-39.2-28.7-81.8-5.1-105.5 58.4-7 18.8-14 47.8-17.2 71-.3 2.5-1 7.2-1.5 10.5-1.5 10.1-4.4 35.8-5.5 48.5-.3 3.6-.8 8.1-1 10-.2 1.9-.7 6.6-1 10.5-.3 3.8-.8 8.6-1 10.5-.2 1.9-.7 6.9-1 11-.3 4.1-.8 9.1-1 11-.2 1.9-.7 6.4-1 10-7.9 87.3-21.4 137.8-43.1 161-4.6 4.9-9.3 7.3-16.4 8.4l-3.5.6-5.3 14.6c-2.9 8.1-5.1 15.3-4.8 16 1.3 3.4 21.1 3.7 30.5.5 30.3-10.4 53.7-51.5 66-116.6 5-26.3 9.2-60.8 13.6-112 .3-3.3.8-8.1 1-10.8.3-2.6.7-7 1-9.7 1.9-19.1 3.6-35 4-38.5.2-1.7.6-5 .9-7.5.3-2.5.8-6.5 1.1-9 7.7-64.7 26.8-113.1 49-123.6 6.5-3.1 10.9-3 17.3.2 10.5 5.2 19.8 19.4 31.9 48.4 13.8 33.1 22.4 68.8 26.7 110 .3 2.5.9 9 1.5 14.5s2.2 23 3.6 39c3.9 44.7 6.6 63.5 12.5 86.7 13.9 55.1 43.1 88.3 84.6 96.2 11.2 2.1 32.6 1.4 42.4-1.4 49.2-13.9 81.1-67 94.4-156.6.8-5.5 1.8-12.6 2.1-15.9.3-3.3.8-7.1 1-8.5.2-1.4.7-5.7 1-9.5.3-3.9.8-8.1 1-9.5.2-1.4.7-6.6 1-11.5.3-5 .8-11.5 1-14.5.4-5.1.9-13.5 2-33.5.2-4.4.7-15 1-23.5.9-24.4 2.2-53.3 3-64 .3-3.6.7-10.3 1-15 4.1-60.8 15.2-113.8 28.1-134 8-12.5 18.4-16.5 25.9-9.9 9.4 8.2 18.4 33.6 23.5 65.9.6 4.1 1.4 8.6 1.6 10 1.6 9.2 5.5 43.4 6.9 60 .9 10.6 1.5 18.2 2 23 .2 2.5.7 8.1 1 12.5.3 4.4.7 10.5 1 13.5.2 3 .7 9.5 1 14.5.3 4.9.8 10.6 1 12.5.2 1.9.6 8 1 13.5.3 5.5.8 12.2 1 15 .5 5.3 1.2 13.6 2 25 .3 3.8.7 9 1 11.5.2 2.5.7 7.4 1 11 .6 6.9 1.3 13.7 2 21 .3 2.5.7 6.7 1 9.5 9 88.5 27.7 145.8 57.9 176.9 12.8 13.1 29.4 21.7 41.2 21.2 11.7-.5 29.1-12.9 41.8-30 18.2-24.4 32.7-69.9 40-125.1 1.1-8.5 2.5-20.3 3.1-26 .3-3.3.8-7.8 1-10 1.2-12.3 1.6-15.6 2-22 .3-3.9.7-9.3 1-12 .7-8 2.1-26 3-40 .3-4.4.7-10.7 1-14 .3-3.3.7-10.1 1-15 .3-5 .7-12.2 1-16 1.2-19.5 1.6-24.5 2-30.5.3-3.6.9-12.8 1.5-20.5 1.2-16.5 2.9-38.6 3.5-43.5.2-1.9.7-6.9 1-11 1.5-18 4.7-40 8.1-56.3 6.3-30 14.2-47.7 21.2-47.7 15.3 0 28.4 39 35.7 105.7.3 2.4.7 6.2 1 8.5.2 2.4.7 7.4 1 11.3.3 3.8.7 9.7 1 13 1 13.4 1.8 28.3 3 59.5 1.2 29.9 1.5 38.1 2 51.5.8 22.3 3.1 60.9 4 66.5.2 1.4.6 6.1 1 10.5.3 4.4.8 9.1 1 10.5.2 1.4.7 4.7 1 7.5 11.6 99 43.6 156.6 91.9 166 6.8 1.4 25.7 1.4 31.7.1 41.5-9 69-48.1 79.8-113.1 1.9-11.8 4-27.2 4.6-35 .2-2.2.8-9.6 1.5-16.5 1.6-17.8 1.9-21.5 2.5-30.5.7-9.4 1.3-16.7 2.1-25 .3-3.3.7-8.5 1-11.5.3-3 .7-7.1.9-9 .2-1.9.7-6.2 1-9.5.4-3.3 1.3-10.1 2-15 .8-5 1.6-10.8 2-13 4.6-32.6 21.3-84.1 33.7-104 4.1-6.5 6.4-9.1 11.2-12.6 6.9-5.1 12.2-3.6 20.5 5.8 11.1 12.5 20.8 36.6 27.4 68.8 2.7 13 3.1 15 5.2 30 1.2 8.8 2 15.1 4.1 32.5.2 2.5.7 6.9.9 9.7.2 2.7.6 7.2.9 9.9.3 2.7 1 10.5 1.6 17.4.5 6.9 1.2 15.2 1.5 18.5.3 3.3.7 9.1 1 13 .3 3.8.8 9 1 11.5.2 2.5.9 10.1 1.5 17s1.3 14.5 1.5 17c.3 2.5.7 7 1 10 .3 3 .7 7.1 1 9 .3 1.9.7 5.7 1 8.5.6 5.4.7 6.6 2.9 22 6.3 43.6 17.2 78.2 31.7 100.5 5.9 9.2 17.2 20.1 24.4 23.7 7.3 3.7 15.9 5.6 21.7 4.8 6.7-.8 12.8-2.7 12.8-3.7 0-.6-2.8-7.7-6.2-15.9l-6.3-14.9h-3.3c-6.4 0-15.8-12-23.5-30-6.2-14.5-14.4-46.9-17.2-68-.3-2.5-.8-5.6-1-7-.2-1.4-.7-4.5-.9-7-.3-2.5-.7-6.1-1-8-1-6.9-1.4-10.5-4.1-39.5-.9-10-2.4-28.2-3-36-.3-4.4-.8-10.3-1-13-1.3-15.4-1.7-19.4-2-23-.3-2.2-.7-7.2-1-11-1.6-20-5.1-48.5-8.1-66.5-8.7-51-22.5-86.6-40.9-105.6-17.3-17.9-37.5-22.3-57.2-12.7-11.3 5.6-25.3 21.4-33.5 37.8-6.7 13.2-17.2 42.5-23.2 64-4.4 15.9-10.3 46.4-12.1 62-.3 3.3-.8 7.1-1 8.5-.8 5.3-2.8 26.5-4 42-.3 4.1-.8 9.5-1 12-.2 2.5-.7 8.5-1 13.5-.3 4.9-.8 10.6-1 12.5-.2 1.9-.7 7.1-1 11.5-.7 9.1-.9 11.2-3 28.5-6.6 53.1-21.7 85.6-45 97.1-17.8 8.7-35.9 5.4-50.7-9.4-7.9-7.9-12.5-14.7-18.4-27.2-11-23.4-20.3-61.1-23.9-97-.3-3.3-.8-7.1-1-8.5-.6-3.3-3.3-35.8-4-48-.3-5.2-.7-12.9-1-17-.5-7.5-1-22-2-52.5-.6-18.8-1.4-37.2-2-47-.2-3.9-.7-11.5-1-17-.3-5.5-.8-12.5-1-15.5-.2-3-.7-8.9-1-13-.9-11.1-4-39.3-5-45-.2-1.4-.7-4.5-1-7-2.3-17.2-9.9-46.6-15.9-61.5-10.6-26.1-27-40.7-47.2-42-31.6-1.9-51.5 29.6-61.3 97-2.8 19.1-5.3 42.1-6.6 59.5-.3 4.1-.8 9.3-1 11.5-.3 2.2-.7 8-1 13-.3 4.9-.7 10.8-1 13-.2 2.2-.7 8.9-1.1 15-.3 6-.7 12.6-.9 14.5-.2 1.9-.6 8.9-1 15.5-.3 6.6-.8 14-1 16.5-.2 2.5-.7 8.8-1 14-.3 5.2-.8 12.4-1.1 16-.2 3.6-.7 9.4-.9 13-.6 10-1.5 22-2 27-.2 2.5-.7 7.2-1 10.5-1.2 13.5-3.6 38.2-4 40.5-.2 1.4-.9 6.8-1.5 12s-1.5 12-2 15-1.2 7.1-1.5 9c-5.4 34-15.4 66-26.7 85.3-5.3 9-16.6 20.7-20 20.7-1.3 0-4.4-1.3-6.9-2.9-21.4-13.8-40.3-57.2-49.8-114.6-1.5-9.3-3.5-23.3-4.6-32-.3-2.8-1-8.4-1.5-12.5s-1.4-12.7-2-19c-.6-6.3-1.3-13.5-1.5-16-.7-7.6-1.4-16.1-2-24-.3-4.1-.8-10-1-13-.9-10.1-1.5-17.4-2-25.5-.3-4.4-.7-10.7-1-14-.2-3.3-.7-9.6-1-14-.7-8.9-1.2-16.8-2-26.5-.6-7.8-1.3-16-2-25.5-.3-3.9-.8-9-1-11.5-.3-2.5-.7-7.2-1-10.5-.8-7.5-5.3-45.3-5.9-48-.2-1.1-.7-4.2-1-6.8-.8-5.1-1-6.1-2.6-14.2-.5-2.8-1.1-6.1-1.4-7.5-2.1-12.3-8.6-32.9-14.1-44.5-12.8-26.9-31.9-39.1-55.3-35.4z"/><path d="M416.7 984.6c-.1.1-4.7.4-10.2.8-10.9.7-13.9 1-32 3.2-102.7 12.6-200.1 53.6-274 115.4-27.1 22.7-59 57.9-77.3 85.2-1.5 2.3-3.5 5.2-4.4 6.6-1 1.5-1.5 2.8-1.3 3 .2.2 6.6-4.4 14.2-10.4 63.8-49.5 145.7-86 232.3-103.4 20.2-4.1 49-8.5 62-9.5 4.1-.3 9.5-.8 12-1.2 7.1-.8 76.2-1 89.5-.2 13.2.8 24.2 1.8 27.1 2.3 1.1.2 4.8.7 8.4 1.1 31.2 3.3 78.2 13.9 113.4 25.7 61.8 20.6 111.5 47 162.6 86.3 24.5 18.9 42.5 30.1 68.4 42.6 37.3 17.9 74 29.2 118.1 36.3 5.6.9 19.6 2.6 28.3 3.3 17.7 1.6 76.1.7 85.7-1.2 1.1-.2 4.1-.7 6.8-1 2.6-.3 6.8-.8 9.5-1.1 2.6-.3 12.6-2.1 22.2-4 74.2-14.7 142-47.9 193.8-94.9 44.8-40.6 76.5-89.7 92.6-143.5 2.5-8.3 7.6-30.2 7.6-32.4 0-.6-3.7 5.9-8.1 14.4-8.7 16.8-20.8 35.6-31.5 49-9.7 12-36.9 39.1-49.9 49.4-24 19.2-49.5 34.4-83 49.6-30.2 13.7-77.1 25.8-116 30.1-18.6 2-70.5 1.6-93-.7-29.6-3-75.1-15.1-104.9-27.9-32.2-13.8-52.5-26.3-82.1-50.7-43.7-35.9-91.2-63.7-144.1-84.1-7.6-3-17-6.4-20.9-7.6-3.8-1.3-7.9-2.6-9-3.1-3-1.4-21.3-6.5-37-10.4-21.3-5.2-40.2-9-61-12-22.8-3.4-34.1-4.2-58.5-4.5-34.8-.4-56.2-.6-56.3-.5z"/></svg>